# xmcd
#
# Track frame offsets: 
#        150
#        22138
#        42463
#        69163
#        84163
#        142888
#        227038
#        267163
#        307813
#
# Disc length: 4564 seconds
#
# Revision: 3
# Processed by: cddbd v1.5.2PL0 Copyright (c) Steve Scherf et al.
# Submitted via: ExactAudioCopy v1.3
#
DISCID=6a11d209
DTITLE=Regina Resnik, Andre Turp, David Ward - Pierre Monteux - The Wes
DTITLE=tminster Legacy [CD 38) Berlioz - Romeo and Juliet (1)
DYEAR=1962
DGENRE=Symphonic
TTITLE0=LSO, Pierre Monteux - ROMEO ET JULIETTE, symphonie dramatique 
TTITLE0=op. 17 - PART I. Introduction: Combats - Tumulte - Interventio
TTITLE0=n du Prince
TTITLE1=LSO, Pierre Monteux - Prologue: “D'anciennes haines endormies”
TTITLE1=(contralto, chorus)
TTITLE2=LSO, Pierre Monteux - Strophes: “Premiers transports que nul n
TTITLE2='oublie !” (contralto, chorus)
TTITLE3=LSO, Pierre Monteux - Récitatif: “Bientôt de Roméo la pâle rêv
TTITLE3=erie” (tenor, chorus) - Scherzetto: “Mab, la messagère fluette
TTITLE3=et légère” (tenor, chorus) - “Bientôt la mort est souveraine”
TTITLE3=(chorus)
TTITLE4=LSO, Pierre Monteux - PART II. Roméo seul -Tristesse - Bruit l
TTITLE4=ointain de bal et de concert - Grande fête chez Capulet
TTITLE5=LSO, Pierre Monteux - PART III. Nuit sereine - Le jardin de Ca
TTITLE5=pulet, silencieux et désert - Les jeunes Capulets, sortant de 
TTITLE5=la fête, passent en chantant des réminiscences de la musique d
TTITLE5=u bal - “Ohé ! Capulets, bonsoir ! (chorus)” Scène d'amour
TTITLE6=LSO, Pierre Monteux - PART IV. La reine Mab, ou la fée des son
TTITLE6=ges
TTITLE7=LSO, Pierre Monteux - PART V. Convoi funèbre de Juliette “Jete
TTITLE7=z des fleurs pour la vierge expirée !” (chorus)
TTITLE8=LSO, Pierre Monteux - PART VI. Roméo au tombeau des Capulets: 
TTITLE8=Invocation - Réveil de Juliette - Joie délirante, désespoir, d
TTITLE8=ernières angoisses et mort des deux amants
EXTD=YEAR: 1962
EXTT0=
EXTT1=
EXTT2=
EXTT3=
EXTT4=
EXTT5=
EXTT6=
EXTT7=
EXTT8=
PLAYORDER=
